<svg xmlns="http://www.w3.org/2000/svg" version="1.1" xmlns:xlink="http://www.w3.org/1999/xlink" xmlns:svgjs="http://svgjs.dev/svgjs" width="1500" height="1500" viewBox="0 0 1500 1500"><rect width="1500" height="1500" fill="#000000"></rect><g transform="matrix(0.6666666666666666,0,0,0.6666666666666666,249.39393939393938,435.99032258064517)"><svg viewBox="0 0 396 248" data-background-color="#000000" preserveAspectRatio="xMidYMid meet" height="939" width="1500" xmlns="http://www.w3.org/2000/svg" xmlns:xlink="http://www.w3.org/1999/xlink"><g id="tight-bounds" transform="matrix(1,0,0,1,0.2400000000000091,0.4000000000000057)"><svg viewBox="0 0 395.52 247.2" height="247.2" width="395.52"><rect width="395.52" height="247.2" fill="#ffffff" mask="url(#21a1c121-7638-442f-a092-35b588cc6802)" data-fill-palette-color="tertiary"></rect><g><svg></svg></g><g><svg viewBox="0 0 395.52 247.2" height="247.2" width="395.52"><g transform="matrix(1,0,0,1,75.54432,92.10184806997083)"><svg viewBox="0 0 244.43135999999998 62.99630386005832" height="62.99630386005832" width="244.43135999999998"><g><svg viewBox="0 0 244.43135999999998 62.99630386005832" height="62.99630386005832" width="244.43135999999998"><g><svg viewBox="0 0 244.43135999999998 62.99630386005832" height="62.99630386005832" width="244.43135999999998"><g><svg viewBox="0 0 244.43135999999998 62.99630386005832" height="62.99630386005832" width="244.43135999999998"><g id="textblocktransform"><svg viewBox="0 0 244.43135999999998 62.99630386005832" height="62.99630386005832" width="244.43135999999998" id="textblock"><g><svg viewBox="0 0 244.43135999999998 62.99630386005832" height="62.99630386005832" width="244.43135999999998"><g transform="matrix(1,0,0,1,0,0)"><svg width="244.43135999999998" viewBox="3.78 -32.55 128.60999999999999 33.15" height="62.99630386005832" data-palette-color="url(#1c3062e4-4501-43d3-a5dc-7803c81248c1)"></svg></g></svg></g></svg></g></svg></g></svg></g></svg></g></svg></g><g><path d="M245.816 0c68.262 0 123.6 55.338 123.6 123.6 0 68.262-55.338 123.6-123.6 123.6-54.659 0-101.032-35.48-117.343-84.666h2.997c16.2 47.59 61.275 81.825 114.346 81.825 66.694 0 120.759-54.066 120.759-120.759 0-66.694-54.066-120.759-120.759-120.759-53.071 0-98.146 34.235-114.346 81.825l-2.997 0c16.311-49.186 62.684-84.666 117.343-84.666z" fill="#ffffff" stroke="transparent" data-fill-palette-color="tertiary"></path></g></svg></g><defs></defs><mask id="4e0575c3-7602-46d3-8890-c92e6f9c44b3"><g id="SvgjsG5311"><svg viewBox="0 0 395.52 247.2" height="247.2" width="395.52"><g><svg></svg></g><g><svg viewBox="0 0 395.52 247.2" height="247.2" width="395.52"><g transform="matrix(1,0,0,1,75.54432,92.10184806997083)"><svg viewBox="0 0 244.43135999999998 62.99630386005832" height="62.99630386005832" width="244.43135999999998"><g><svg viewBox="0 0 244.43135999999998 62.99630386005832" height="62.99630386005832" width="244.43135999999998"><g><svg viewBox="0 0 244.43135999999998 62.99630386005832" height="62.99630386005832" width="244.43135999999998"><g><svg viewBox="0 0 244.43135999999998 62.99630386005832" height="62.99630386005832" width="244.43135999999998"><g id="SvgjsG5310"><svg viewBox="0 0 244.43135999999998 62.99630386005832" height="62.99630386005832" width="244.43135999999998" id="SvgjsSvg5309"><g><svg viewBox="0 0 244.43135999999998 62.99630386005832" height="62.99630386005832" width="244.43135999999998"><g transform="matrix(1,0,0,1,0,0)"><svg width="244.43135999999998" viewBox="3.78 -32.55 128.60999999999999 33.15" height="62.99630386005832" data-palette-color="url(#1c3062e4-4501-43d3-a5dc-7803c81248c1)"><path d="M7.88 0L3.78 0 3.78-31.95 7.88-31.95 7.88 0ZM23.7 0L5 0 5-3.48 23.7-3.48 23.7 0ZM23.18-14.58L6.13-14.58 6.13-18.03 23.18-18.03 23.18-14.58ZM23.55-28.48L4.98-28.48 4.98-31.95 23.55-31.95 23.55-28.48ZM33.1-3.5L49.9-3.5 49.9 0 28.3 0 28.3-3.28 44.92-28.5 28.45-28.5 28.45-31.95 49.72-31.95 49.72-28.73 33.1-3.5ZM73.59 0L53.8 0 53.8-3.95 61.77-11.78Q64.02-14 65.61-15.78 67.2-17.55 68.05-19.25 68.9-20.95 68.9-22.88L68.9-22.88 68.9-23.13Q68.9-24.95 68.2-26.25 67.5-27.55 66.07-28.23 64.65-28.9 62.4-28.9L62.4-28.9Q59.9-28.9 57.75-28.1 55.59-27.3 53.92-26.25L53.92-26.25 54.32-30Q55.27-30.6 56.57-31.18 57.87-31.75 59.52-32.13 61.17-32.5 63.2-32.5L63.2-32.5Q68.15-32.5 70.62-30.2 73.09-27.9 73.09-23.63L73.09-23.63 73.09-23.28Q73.09-20.75 72.2-18.7 71.3-16.65 69.57-14.61 67.84-12.58 65.42-10.18L65.42-10.18 58.92-3.75 58.92-2.78 57.22-3.53 73.59-3.53 73.59 0ZM89.99 0L82.09 0 82.09-3.5 89.84-3.5Q94.09-3.5 96.23-5.81 98.37-8.13 98.37-12.43L98.37-12.43 98.37-19.55Q98.37-23.88 96.23-26.18 94.09-28.48 89.84-28.48L89.84-28.48 82.07-28.48 82.07-31.95 89.99-31.95Q96.19-31.95 99.37-28.76 102.54-25.58 102.54-19.58L102.54-19.58 102.54-12.4Q102.54-6.43 99.37-3.21 96.19 0 89.99 0L89.99 0ZM83.39 0L79.29 0 79.29-31.95 83.39-31.95 83.39 0ZM120.04 0.6L120.04 0.6Q113.99 0.6 110.84-2.74 107.69-6.08 107.69-12.3L107.69-12.3 107.69-19.68Q107.69-25.88 110.84-29.21 113.99-32.55 120.04-32.55L120.04-32.55Q126.09-32.55 129.24-29.21 132.39-25.88 132.39-19.68L132.39-19.68 132.39-12.3Q132.39-6.08 129.24-2.74 126.09 0.6 120.04 0.6ZM120.04-2.88L120.04-2.88Q124.09-2.88 126.14-5.29 128.19-7.7 128.19-12.13L128.19-12.13 128.19-19.85Q128.19-24.28 126.14-26.68 124.09-29.08 120.04-29.08L120.04-29.08Q116.02-29.08 113.97-26.68 111.92-24.28 111.92-19.85L111.92-19.85 111.92-12.13Q111.92-7.7 113.97-5.29 116.02-2.88 120.04-2.88Z" opacity="1" transform="matrix(1,0,0,1,0,0)" fill="white" class="wordmark-text-0" id="SvgjsPath5308"></path></svg></g></svg></g></svg></g></svg></g></svg></g></svg></g></svg></g><g><path d="M245.816 0c68.262 0 123.6 55.338 123.6 123.6 0 68.262-55.338 123.6-123.6 123.6-54.659 0-101.032-35.48-117.343-84.666h2.997c16.2 47.59 61.275 81.825 114.346 81.825 66.694 0 120.759-54.066 120.759-120.759 0-66.694-54.066-120.759-120.759-120.759-53.071 0-98.146 34.235-114.346 81.825l-2.997 0c16.311-49.186 62.684-84.666 117.343-84.666z" fill="black" stroke="transparent"></path></g></svg></g><defs><mask></mask></defs></svg><rect width="395.52" height="247.2" fill="black" stroke="none" visibility="hidden"></rect></g></mask><linearGradient x1="0" x2="1" y1="0.578" y2="0.595" id="1c3062e4-4501-43d3-a5dc-7803c81248c1"><stop stop-color="#6ee2f5" offset="0"></stop><stop stop-color="#6454f0" offset="1"></stop></linearGradient><rect width="395.52" height="247.2" fill="#ffffff" mask="url(#4e0575c3-7602-46d3-8890-c92e6f9c44b3)" data-fill-palette-color="primary"></rect><mask id="21a1c121-7638-442f-a092-35b588cc6802"><g id="SvgjsG5334"><svg viewBox="0 0 395.52 247.2" height="247.2" width="395.52"><g><svg></svg></g><g><svg viewBox="0 0 395.52 247.2" height="247.2" width="395.52"><g transform="matrix(1,0,0,1,75.54432,92.10184806997083)"><svg viewBox="0 0 244.43135999999998 62.99630386005832" height="62.99630386005832" width="244.43135999999998"><g><svg viewBox="0 0 244.43135999999998 62.99630386005832" height="62.99630386005832" width="244.43135999999998"><g><svg viewBox="0 0 244.43135999999998 62.99630386005832" height="62.99630386005832" width="244.43135999999998"><g><svg viewBox="0 0 244.43135999999998 62.99630386005832" height="62.99630386005832" width="244.43135999999998"><g id="SvgjsG5333"><svg viewBox="0 0 244.43135999999998 62.99630386005832" height="62.99630386005832" width="244.43135999999998" id="SvgjsSvg5332"><g><svg viewBox="0 0 244.43135999999998 62.99630386005832" height="62.99630386005832" width="244.43135999999998"><g transform="matrix(1,0,0,1,0,0)"><svg width="244.43135999999998" viewBox="3.78 -32.55 128.60999999999999 33.15" height="62.99630386005832" data-palette-color="url(#1c3062e4-4501-43d3-a5dc-7803c81248c1)"></svg></g></svg></g></svg></g></svg></g></svg></g></svg></g></svg></g><g><path d="M245.816 0c68.262 0 123.6 55.338 123.6 123.6 0 68.262-55.338 123.6-123.6 123.6-54.659 0-101.032-35.48-117.343-84.666h2.997c16.2 47.59 61.275 81.825 114.346 81.825 66.694 0 120.759-54.066 120.759-120.759 0-66.694-54.066-120.759-120.759-120.759-53.071 0-98.146 34.235-114.346 81.825l-2.997 0c16.311-49.186 62.684-84.666 117.343-84.666z" fill="white" stroke="transparent"></path></g></svg></g><defs><mask></mask></defs><mask><g id="SvgjsG5331"><svg viewBox="0 0 395.52 247.2" height="247.2" width="395.52"><g><svg></svg></g><g><svg viewBox="0 0 395.52 247.2" height="247.2" width="395.52"><g transform="matrix(1,0,0,1,75.54432,92.10184806997083)"><svg viewBox="0 0 244.43135999999998 62.99630386005832" height="62.99630386005832" width="244.43135999999998"><g><svg viewBox="0 0 244.43135999999998 62.99630386005832" height="62.99630386005832" width="244.43135999999998"><g><svg viewBox="0 0 244.43135999999998 62.99630386005832" height="62.99630386005832" width="244.43135999999998"><g><svg viewBox="0 0 244.43135999999998 62.99630386005832" height="62.99630386005832" width="244.43135999999998"><g id="SvgjsG5330"><svg viewBox="0 0 244.43135999999998 62.99630386005832" height="62.99630386005832" width="244.43135999999998" id="SvgjsSvg5329"><g><svg viewBox="0 0 244.43135999999998 62.99630386005832" height="62.99630386005832" width="244.43135999999998"><g transform="matrix(1,0,0,1,0,0)"><svg width="244.43135999999998" viewBox="3.78 -32.55 128.60999999999999 33.15" height="62.99630386005832" data-palette-color="url(#1c3062e4-4501-43d3-a5dc-7803c81248c1)"><path d="M7.88 0L3.78 0 3.78-31.95 7.88-31.95 7.88 0ZM23.7 0L5 0 5-3.48 23.7-3.48 23.7 0ZM23.18-14.58L6.13-14.58 6.13-18.03 23.18-18.03 23.18-14.58ZM23.55-28.48L4.98-28.48 4.98-31.95 23.55-31.95 23.55-28.48ZM33.1-3.5L49.9-3.5 49.9 0 28.3 0 28.3-3.28 44.92-28.5 28.45-28.5 28.45-31.95 49.72-31.95 49.72-28.73 33.1-3.5ZM73.59 0L53.8 0 53.8-3.95 61.77-11.78Q64.02-14 65.61-15.78 67.2-17.55 68.05-19.25 68.9-20.95 68.9-22.88L68.9-22.88 68.9-23.13Q68.9-24.95 68.2-26.25 67.5-27.55 66.07-28.23 64.65-28.9 62.4-28.9L62.4-28.9Q59.9-28.9 57.75-28.1 55.59-27.3 53.92-26.25L53.92-26.25 54.32-30Q55.27-30.6 56.57-31.18 57.87-31.75 59.52-32.13 61.17-32.5 63.2-32.5L63.2-32.5Q68.15-32.5 70.62-30.2 73.09-27.9 73.09-23.63L73.09-23.63 73.09-23.28Q73.09-20.75 72.2-18.7 71.3-16.65 69.57-14.61 67.84-12.58 65.42-10.18L65.42-10.18 58.92-3.75 58.92-2.78 57.22-3.53 73.59-3.53 73.59 0ZM89.99 0L82.09 0 82.09-3.5 89.84-3.5Q94.09-3.5 96.23-5.81 98.37-8.13 98.37-12.43L98.37-12.43 98.37-19.55Q98.37-23.88 96.23-26.18 94.09-28.48 89.84-28.48L89.84-28.48 82.07-28.48 82.07-31.95 89.99-31.95Q96.19-31.95 99.37-28.76 102.54-25.58 102.54-19.58L102.54-19.58 102.54-12.4Q102.54-6.43 99.37-3.21 96.19 0 89.99 0L89.99 0ZM83.39 0L79.29 0 79.29-31.95 83.39-31.95 83.39 0ZM120.04 0.6L120.04 0.6Q113.99 0.6 110.84-2.74 107.69-6.08 107.69-12.3L107.69-12.3 107.69-19.68Q107.69-25.88 110.84-29.21 113.99-32.55 120.04-32.55L120.04-32.55Q126.09-32.55 129.24-29.21 132.39-25.88 132.39-19.68L132.39-19.68 132.39-12.3Q132.39-6.08 129.24-2.74 126.09 0.6 120.04 0.6ZM120.04-2.88L120.04-2.88Q124.09-2.88 126.14-5.29 128.19-7.7 128.19-12.13L128.19-12.13 128.19-19.85Q128.19-24.28 126.14-26.68 124.09-29.08 120.04-29.08L120.04-29.08Q116.02-29.08 113.97-26.68 111.92-24.28 111.92-19.85L111.92-19.85 111.92-12.13Q111.92-7.7 113.97-5.29 116.02-2.88 120.04-2.88Z" opacity="1" transform="matrix(1,0,0,1,0,0)" fill="black" class="wordmark-text-0" id="SvgjsPath5328"></path></svg></g></svg></g></svg></g></svg></g></svg></g></svg></g></svg></g><g><path d="M245.816 0c68.262 0 123.6 55.338 123.6 123.6 0 68.262-55.338 123.6-123.6 123.6-54.659 0-101.032-35.48-117.343-84.666h2.997c16.2 47.59 61.275 81.825 114.346 81.825 66.694 0 120.759-54.066 120.759-120.759 0-66.694-54.066-120.759-120.759-120.759-53.071 0-98.146 34.235-114.346 81.825l-2.997 0c16.311-49.186 62.684-84.666 117.343-84.666z" fill="black" stroke="transparent"></path></g></svg></g><defs><mask></mask></defs></svg><rect width="395.52" height="247.2" fill="black" stroke="none" visibility="hidden"></rect></g></mask></svg><rect width="395.52" height="247.2" fill="black" stroke="none" visibility="hidden"></rect></g></mask><linearGradient x1="0" x2="1" y1="0.578" y2="0.595" id="960d6cdd-6b6e-4c09-88b8-f9bea719286e"><stop stop-color="#6ee2f5" offset="0"></stop><stop stop-color="#6454f0" offset="1"></stop></linearGradient></svg><rect width="395.52" height="247.2" fill="none" stroke="none" visibility="hidden"></rect></g></svg></g></svg>